<mxfile host="Electron" modified="2025-03-27T18:23:58.453Z" agent="Mozilla/5.0 (Windows NT 10.0; Win64; x64) AppleWebKit/537.36 (KHTML, like Gecko) draw.io/21.6.8 Chrome/114.0.5735.289 Electron/25.5.0 Safari/537.36" etag="fWpJVUxwvc20GwHjaw02" version="21.6.8" type="device">
  <diagram name="Page-1" id="0gem_lbOX4iyGkM8qP1z">
    <mxGraphModel dx="1434" dy="975" grid="1" gridSize="10" guides="1" tooltips="1" connect="1" arrows="1" fold="1" page="0" pageScale="1" pageWidth="827" pageHeight="1169" math="0" shadow="0">
      <root>
        <mxCell id="0" />
        <mxCell id="1" parent="0" />
        <mxCell id="fmVho1jy5MZqnftv2fbF-1" value="&lt;font style=&quot;font-size: 30px;&quot;&gt;&lt;i&gt;&lt;b&gt;Use Case Diagram&lt;/b&gt;&lt;/i&gt;&lt;/font&gt;" style="text;html=1;strokeColor=none;fillColor=none;align=center;verticalAlign=middle;whiteSpace=wrap;rounded=0;fontSize=16;" vertex="1" parent="1">
          <mxGeometry x="-25" y="-20" width="380" height="90" as="geometry" />
        </mxCell>
        <mxCell id="fmVho1jy5MZqnftv2fbF-3" value="User" style="shape=umlActor;verticalLabelPosition=bottom;verticalAlign=top;html=1;outlineConnect=0;fontSize=16;" vertex="1" parent="1">
          <mxGeometry x="-200" y="280" width="30" height="60" as="geometry" />
        </mxCell>
        <mxCell id="fmVho1jy5MZqnftv2fbF-7" value="" style="endArrow=classic;html=1;rounded=0;fontSize=12;startSize=8;endSize=8;curved=1;exitX=0.5;exitY=0.5;exitDx=0;exitDy=0;exitPerimeter=0;entryX=0;entryY=0.5;entryDx=0;entryDy=0;" edge="1" parent="1" source="fmVho1jy5MZqnftv2fbF-3" target="fmVho1jy5MZqnftv2fbF-5">
          <mxGeometry width="50" height="50" relative="1" as="geometry">
            <mxPoint x="-170" y="430" as="sourcePoint" />
            <mxPoint x="-120" y="380" as="targetPoint" />
          </mxGeometry>
        </mxCell>
        <mxCell id="fmVho1jy5MZqnftv2fbF-8" value="" style="endArrow=classic;html=1;rounded=0;fontSize=12;startSize=8;endSize=8;curved=1;exitX=0.5;exitY=0.5;exitDx=0;exitDy=0;exitPerimeter=0;entryX=0;entryY=0.5;entryDx=0;entryDy=0;" edge="1" parent="1" source="fmVho1jy5MZqnftv2fbF-3" target="fmVho1jy5MZqnftv2fbF-6">
          <mxGeometry width="50" height="50" relative="1" as="geometry">
            <mxPoint x="-230" y="210" as="sourcePoint" />
            <mxPoint x="-60" y="110" as="targetPoint" />
          </mxGeometry>
        </mxCell>
        <mxCell id="fmVho1jy5MZqnftv2fbF-10" value="Firebase" style="shape=cylinder3;whiteSpace=wrap;html=1;boundedLbl=1;backgroundOutline=1;size=15;fontSize=16;" vertex="1" parent="1">
          <mxGeometry x="660" y="500" width="85" height="110" as="geometry" />
        </mxCell>
        <mxCell id="fmVho1jy5MZqnftv2fbF-11" value="" style="endArrow=classic;html=1;rounded=0;fontSize=12;startSize=8;endSize=8;curved=1;entryX=1;entryY=0.5;entryDx=0;entryDy=0;" edge="1" parent="1" source="fmVho1jy5MZqnftv2fbF-17" target="fmVho1jy5MZqnftv2fbF-5">
          <mxGeometry width="50" height="50" relative="1" as="geometry">
            <mxPoint x="450" y="240" as="sourcePoint" />
            <mxPoint x="210" y="310" as="targetPoint" />
          </mxGeometry>
        </mxCell>
        <mxCell id="fmVho1jy5MZqnftv2fbF-12" value="" style="endArrow=classic;html=1;rounded=0;fontSize=12;startSize=8;endSize=8;curved=1;entryX=1;entryY=0.5;entryDx=0;entryDy=0;" edge="1" parent="1" source="fmVho1jy5MZqnftv2fbF-17" target="fmVho1jy5MZqnftv2fbF-6">
          <mxGeometry width="50" height="50" relative="1" as="geometry">
            <mxPoint x="500" y="280" as="sourcePoint" />
            <mxPoint x="230" y="210" as="targetPoint" />
          </mxGeometry>
        </mxCell>
        <mxCell id="fmVho1jy5MZqnftv2fbF-15" style="edgeStyle=none;curved=1;rounded=0;orthogonalLoop=1;jettySize=auto;html=1;exitX=1;exitY=1;exitDx=0;exitDy=0;fontSize=12;startSize=8;endSize=8;" edge="1" parent="1">
          <mxGeometry relative="1" as="geometry">
            <mxPoint x="440" y="680" as="sourcePoint" />
            <mxPoint x="440" y="680" as="targetPoint" />
          </mxGeometry>
        </mxCell>
        <mxCell id="fmVho1jy5MZqnftv2fbF-16" value="" style="swimlane;startSize=0;fontSize=16;" vertex="1" parent="1">
          <mxGeometry x="-60" y="100" width="610" height="560" as="geometry" />
        </mxCell>
        <mxCell id="fmVho1jy5MZqnftv2fbF-5" value="Sign Up &lt;br&gt;&amp;lt;&amp;lt;include&amp;gt;&amp;gt;&lt;br&gt;Create User" style="ellipse;whiteSpace=wrap;html=1;fontSize=16;" vertex="1" parent="fmVho1jy5MZqnftv2fbF-16">
          <mxGeometry x="190" y="40" width="170" height="100" as="geometry" />
        </mxCell>
        <mxCell id="fmVho1jy5MZqnftv2fbF-6" value="Log In&lt;br&gt;&amp;lt;&amp;lt;include&amp;gt;&amp;gt;&lt;br&gt;Authenticate" style="ellipse;whiteSpace=wrap;html=1;fontSize=16;" vertex="1" parent="fmVho1jy5MZqnftv2fbF-16">
          <mxGeometry x="180" y="175" width="180" height="105" as="geometry" />
        </mxCell>
        <mxCell id="fmVho1jy5MZqnftv2fbF-22" value="View Profile" style="ellipse;whiteSpace=wrap;html=1;fontSize=16;" vertex="1" parent="fmVho1jy5MZqnftv2fbF-16">
          <mxGeometry x="215" y="340" width="110" height="70" as="geometry" />
        </mxCell>
        <mxCell id="fmVho1jy5MZqnftv2fbF-27" value="Reset Password" style="ellipse;whiteSpace=wrap;html=1;fontSize=16;" vertex="1" parent="fmVho1jy5MZqnftv2fbF-16">
          <mxGeometry x="200" y="440" width="140" height="70" as="geometry" />
        </mxCell>
        <mxCell id="fmVho1jy5MZqnftv2fbF-29" value="" style="endArrow=classic;html=1;rounded=0;fontSize=12;startSize=8;endSize=8;curved=1;exitX=0.5;exitY=0.5;exitDx=0;exitDy=0;exitPerimeter=0;entryX=0;entryY=0.5;entryDx=0;entryDy=0;" edge="1" parent="1" source="fmVho1jy5MZqnftv2fbF-3" target="fmVho1jy5MZqnftv2fbF-22">
          <mxGeometry width="50" height="50" relative="1" as="geometry">
            <mxPoint x="-130" y="430" as="sourcePoint" />
            <mxPoint x="-80" y="380" as="targetPoint" />
          </mxGeometry>
        </mxCell>
        <mxCell id="fmVho1jy5MZqnftv2fbF-30" value="" style="endArrow=classic;html=1;rounded=0;fontSize=12;startSize=8;endSize=8;curved=1;exitX=0.5;exitY=0.5;exitDx=0;exitDy=0;exitPerimeter=0;entryX=0;entryY=0.5;entryDx=0;entryDy=0;" edge="1" parent="1" source="fmVho1jy5MZqnftv2fbF-3" target="fmVho1jy5MZqnftv2fbF-27">
          <mxGeometry width="50" height="50" relative="1" as="geometry">
            <mxPoint x="-260" y="440" as="sourcePoint" />
            <mxPoint x="-35" y="535" as="targetPoint" />
          </mxGeometry>
        </mxCell>
        <mxCell id="fmVho1jy5MZqnftv2fbF-31" value="" style="endArrow=classic;html=1;rounded=0;fontSize=12;startSize=8;endSize=8;curved=1;entryX=1;entryY=0.5;entryDx=0;entryDy=0;exitX=0.015;exitY=0.488;exitDx=0;exitDy=0;exitPerimeter=0;" edge="1" parent="1" source="fmVho1jy5MZqnftv2fbF-17" target="fmVho1jy5MZqnftv2fbF-22">
          <mxGeometry width="50" height="50" relative="1" as="geometry">
            <mxPoint x="210" y="410" as="sourcePoint" />
            <mxPoint x="-135" y="450" as="targetPoint" />
          </mxGeometry>
        </mxCell>
        <mxCell id="fmVho1jy5MZqnftv2fbF-32" value="" style="endArrow=classic;html=1;rounded=0;fontSize=12;startSize=8;endSize=8;curved=1;entryX=1;entryY=0.5;entryDx=0;entryDy=0;exitX=-0.029;exitY=0.466;exitDx=0;exitDy=0;exitPerimeter=0;" edge="1" parent="1" source="fmVho1jy5MZqnftv2fbF-17" target="fmVho1jy5MZqnftv2fbF-27">
          <mxGeometry width="50" height="50" relative="1" as="geometry">
            <mxPoint x="170" y="430" as="sourcePoint" />
            <mxPoint x="-175" y="470" as="targetPoint" />
          </mxGeometry>
        </mxCell>
        <mxCell id="fmVho1jy5MZqnftv2fbF-34" value="" style="group" vertex="1" connectable="0" parent="1">
          <mxGeometry x="672.5" y="250" width="60" height="120" as="geometry" />
        </mxCell>
        <mxCell id="fmVho1jy5MZqnftv2fbF-17" value="" style="image;points=[];aspect=fixed;html=1;align=center;shadow=0;dashed=0;image=img/lib/allied_telesis/computer_and_terminals/Personal_Computer.svg;fontSize=16;container=0;" vertex="1" parent="fmVho1jy5MZqnftv2fbF-34">
          <mxGeometry x="7" y="58.19999999999999" width="45.6" height="61.800000000000004" as="geometry" />
        </mxCell>
        <mxCell id="fmVho1jy5MZqnftv2fbF-18" value="System" style="text;html=1;strokeColor=none;fillColor=none;align=center;verticalAlign=middle;whiteSpace=wrap;rounded=0;fontSize=16;" vertex="1" parent="fmVho1jy5MZqnftv2fbF-34">
          <mxGeometry width="60" height="30" as="geometry" />
        </mxCell>
        <mxCell id="fmVho1jy5MZqnftv2fbF-36" value="Use" style="endArrow=open;endSize=12;dashed=1;html=1;rounded=0;fontSize=12;curved=1;entryX=0.5;entryY=0;entryDx=0;entryDy=0;entryPerimeter=0;exitX=0.493;exitY=0.941;exitDx=0;exitDy=0;exitPerimeter=0;" edge="1" parent="1" source="fmVho1jy5MZqnftv2fbF-17" target="fmVho1jy5MZqnftv2fbF-10">
          <mxGeometry width="160" relative="1" as="geometry">
            <mxPoint x="319.99879999999996" y="410.0042000000001" as="sourcePoint" />
            <mxPoint x="786.65" y="515.01" as="targetPoint" />
          </mxGeometry>
        </mxCell>
      </root>
    </mxGraphModel>
  </diagram>
</mxfile>
